<svg width="11" height="11" viewBox="0 0 11 11" fill="none" xmlns="http://www.w3.org/2000/svg">
<path d="M5.58691 0.696289C4.60027 0.696289 3.63579 0.987019 2.81544 1.53171C1.99508 2.07641 1.35569 2.8506 0.97812 3.7564C0.60055 4.66219 0.501761 5.6589 0.694244 6.62049C0.886727 7.58207 1.36184 8.46535 2.05949 9.15861C2.75715 9.85188 3.64602 10.324 4.6137 10.5153C5.58138 10.7065 6.5844 10.6084 7.49593 10.2332C8.40747 9.85799 9.18657 9.22262 9.73471 8.40743C10.2829 7.59224 10.5754 6.63383 10.5754 5.6534C10.5754 4.3387 10.0499 3.07783 9.11433 2.14819C8.1788 1.21856 6.90995 0.696289 5.58691 0.696289ZM5.58691 8.87112C4.94648 8.87112 4.32042 8.6824 3.78792 8.32883C3.25542 7.97527 2.84038 7.47273 2.5953 6.88477C2.35021 6.29681 2.28609 5.64983 2.41103 5.02566C2.53598 4.40148 2.84437 3.82814 3.29723 3.37814C3.75009 2.92813 4.32706 2.62168 4.95519 2.49752C5.58332 2.37336 6.23439 2.43708 6.82608 2.68063C7.41776 2.92417 7.92348 3.33659 8.27929 3.86574C8.6351 4.39489 8.82501 5.017 8.82501 5.6534C8.82501 6.50679 8.48385 7.32523 7.87659 7.92867C7.26933 8.53211 6.44571 8.87112 5.58691 8.87112Z" fill="#241415"/>
</svg>
